<svg preserveAspectRatio="none" width="100%" height="100%" overflow="visible" style="display: block;" viewBox="0 0 2957.37 2146.49" fill="none" xmlns="http://www.w3.org/2000/svg">
<g id="Group" style="mix-blend-mode:multiply" opacity="0.38">
<path id="Vector" d="M434.131 963.271L312.219 1084.24C250.87 1145.12 176.887 1247.84 145.348 1330.27C112.204 1416.91 115.992 1507.03 179.098 1579.54C299.919 1718.35 572.735 1744.99 746.544 1740.51C1071.32 1732.15 1405.45 1639.24 1704.14 1513.45C2002.84 1387.66 2312.92 1204.33 2544.32 989.755C2608.97 929.786 2666.62 866.998 2716.7 794.878C2767.32 721.969 2811.34 631.848 2796.2 541.151C2779.39 440.576 2688.28 379.364 2598.97 346.213C2554.95 329.85 2511.44 317.092 2464.78 310.183L2287.26 283.819C2466.69 269.486 2729.85 278.668 2874.63 401.274C2910.96 432.03 2938.29 469.697 2950.44 515.818C2977.03 616.848 2922.62 717.969 2862.88 796.696C2808.87 867.907 2746.96 929.119 2678.96 987.694C2489.06 1151.21 2271.95 1287.75 2053.73 1410.29C1990.74 1445.66 1930.34 1478.57 1864.78 1509.63C1545.09 1661.06 1189.8 1781.84 836.615 1819.42C625.33 1841.9 312.098 1837.93 127.928 1721.33C-18.675 1628.51 -31.9144 1491.69 50.8243 1346.18C133.654 1200.52 296.829 1057.79 434.161 963.362L434.131 963.271Z" fill="var(--fill-0, #6D7B61)"/>
<path id="Vector_2" d="M1908.71 1184.03C1878.16 1200.94 1846.74 1194.26 1828.3 1166.2C1790.46 1108.66 1819.88 1049.73 1863.84 1005.82C1886.99 982.694 1910.18 961.815 1934.76 940.331C1959.33 918.846 1976.74 890.846 1983.14 857.028C2000.77 763.513 1975.24 655.331 1939.54 568.029C1932.75 551.424 1929.43 533.06 1928.39 515.423C1927.15 494.605 1938.33 479.878 1956.09 470.696C1999.01 448.484 2050.51 456.787 2087.09 490.211C2107.39 508.757 2125.47 530.09 2140.08 553.877L2192.03 638.392C2212.82 672.211 2234.41 703.938 2262.17 732.179C2275.83 746.089 2311.03 772.301 2325.73 757.968C2342.88 741.24 2305.25 679.908 2293.56 661.817C2220.7 549.272 2133.8 473.302 2029.13 392.364C1978.75 353.394 1958 295.849 1999.2 240.849C2031.77 197.364 2085.45 182.546 2135.71 205.637C2206.91 238.334 2276.19 320 2323.51 383.181C2399.44 484.545 2500.9 647.968 2537.25 768.635C2545.98 797.543 2548.86 828.543 2542.47 858.119C2525.01 939.118 2452.04 1016.87 2372.9 1040.87C2330.22 1053.84 2289.83 1039.3 2264.77 1001.97C2215.54 928.543 2214.6 859.058 2165.94 789.755C2156.1 775.725 2119.41 736.211 2106.09 748.725C2093.08 760.968 2105.29 799.543 2110.77 816.21L2155.71 952.694C2170.67 998.148 2182.61 1086.18 2139.22 1120.27C2103.44 1148.36 2044.73 1129.76 1974.75 1152.09C1951.67 1159.45 1930.54 1171.97 1908.76 1184.03H1908.71Z" fill="var(--fill-0, #6D7B61)"/>
<path id="Vector_3" d="M1061.98 685.264C1041.02 698.93 1086.61 782.748 1096.85 800.323L1177.13 938.232C1202.38 981.565 1227.31 1046.66 1207.34 1095.62C1192.65 1131.75 1157.6 1153.35 1119.69 1157.99C1076.89 1163.23 1037.57 1143.71 1016.69 1105.51C985.817 1048.95 982.696 968.596 979.546 902.838C970.124 706.052 906.138 536.992 816.068 364.508C800.495 334.659 797.889 301.144 811.463 270.023C848.878 184.296 954.672 123.993 1046.23 185.508C1110.97 228.993 1149.72 299.478 1155.69 377.75C1164.5 493.113 1110.36 527.689 1155.69 596.415C1197.61 660.021 1261.84 702.142 1334.95 724.112C1408.06 746.082 1460.44 811.141 1462.32 887.566C1463.53 936.868 1441.71 983.232 1397.26 1004.93C1362.55 1021.9 1321.47 1015.41 1288.75 995.959C1192.35 938.686 1163.68 798.809 1115.39 706.93C1106.15 689.324 1082.83 671.657 1061.95 685.264H1061.98ZM1025.6 349.083C1013.11 327.66 991.209 317.659 967.699 323.387C909.077 337.659 944.462 432.749 972.183 467.719C977.576 474.507 988.816 479.78 995.996 479.689C1025.17 479.325 1058.35 405.265 1025.6 349.083Z" fill="var(--fill-0, #6D7B61)"/>
<path id="Vector_4" d="M1716.35 563.864C1664.12 596.318 1652.64 676.136 1677.03 731.682C1688.81 758.53 1714.8 769.923 1743.34 765.347C1804.24 755.65 1823.91 717.378 1867.46 704.439C1894.43 696.408 1918.54 709.985 1928.69 735.53C1941.91 768.741 1941.61 805.045 1930.48 840.469C1898.07 943.74 1808.82 1029.38 1697.93 1041.2C1573.78 1054.44 1501.06 944.922 1493.61 831.529C1485.56 708.833 1542.24 654.227 1568.78 542.924C1582.02 487.471 1579.11 432.168 1571.24 375.895C1559.39 291.32 1543.57 195.926 1581.53 117.048C1621.31 34.4423 1704.81 15.1091 1789.15 33.4423C1855.22 47.8362 1905.45 92.4723 1929.3 155.745C1945.29 198.168 1951.66 243.744 1935.45 286.563C1929.06 303.441 1916.28 316.986 1901.77 320.744C1884.53 325.168 1865.11 321.138 1852.26 308.471L1791.58 248.593C1770.89 228.169 1740.16 229.896 1721.8 251.563C1688.59 290.805 1690.96 361.986 1705.77 405.411C1715.86 434.925 1742.43 451.167 1773.04 445.743L1831.42 435.41C1852.71 431.652 1871.77 442.379 1881.52 460.895C1899.92 495.713 1902.07 537.53 1886.19 573.5C1873.8 601.561 1842.32 611.227 1816.12 595.409L1763.46 563.712C1748.52 554.712 1731.38 554.44 1716.35 563.773V563.864Z" fill="var(--fill-0, #6D7B61)"/>
<path id="Vector_5" d="M1039.16 1292.04C1041.48 1235.83 1090.14 1214.93 1140.07 1213.53C1208.23 1211.65 1234.92 1271.19 1240.38 1329.8C1250.7 1440.41 1229.83 1536.52 1196.57 1642.16C1114.43 1658.86 1033.76 1675.38 949.96 1684.98C945.567 1670.68 937.295 1636.28 923.42 1634.71C907.212 1632.89 896.335 1675.22 893.548 1691.43C824.048 1698.74 754.731 1700.8 682.323 1698.47L660.207 1550.28C652.088 1495.89 633.122 1446.13 605.129 1399.34C564.319 1333.22 491.336 1308.86 462.162 1242.89C444.377 1202.65 453.981 1159.99 488.307 1133.13C547.597 1086.78 630.305 1105.65 684.323 1156.38C712.801 1183.14 732.252 1216.56 746.642 1253.35C787.997 1359.13 769.334 1432.53 800.66 1504.95C804.417 1513.68 814.596 1524.89 824.048 1523.4C860.404 1517.71 863.494 1390.2 863.009 1360.68C862.525 1331.17 880.52 1310.77 910.332 1306.87C944.203 1302.4 982.013 1320.38 988.042 1356.59L1014.49 1515.28C1017.31 1532.16 1031.09 1574.11 1050.79 1573.89C1055.63 1573.83 1063.51 1565.96 1065.27 1560.22C1089.87 1479.62 1035.4 1381.5 1039.16 1292.01V1292.04Z" fill="var(--fill-0, #6D7B61)"/>
<path id="Vector_6" d="M916.411 731.418C922.865 793.267 894.901 832.054 928.499 935.235C940.678 972.66 959.674 1039.84 934.68 1073.72C901.323 1118.9 837.399 1127 791.955 1096.78C774.535 1085.21 770.656 1068.03 778.261 1048.84C784.532 1033.05 806.254 981.841 789.319 973.387C786.108 971.781 777.776 974.024 775.322 976.751L733.241 1023.48C685.797 1076.18 608.632 1085.08 550.01 1043.78C468.816 986.539 464.03 885.085 484.358 794.327C506.657 694.904 541.527 599.783 590.122 510.54C628.447 440.148 702.248 382.178 782.744 428.48C836.369 459.329 865.908 524.722 852.153 584.753C846.094 611.237 823.22 625.419 798.166 619.541L741.905 606.328C715.457 600.117 689.796 607.904 674.133 631.964C640.959 682.843 632.537 747.994 651.139 805.751C659.439 831.539 677.405 851.357 698.007 858.115C726.031 867.296 753.448 864.418 773.929 846.327C784.501 836.993 793.046 818.479 781.23 806.872C772.99 798.752 754.509 799.691 743.451 800.934C713.366 804.267 692.705 786.025 689.675 757.479C686.13 723.873 703.127 695.358 735.998 684.025C774.565 670.722 816.404 665.54 857.697 670.782C889.721 674.843 913.079 699.994 916.351 731.479L916.411 731.418Z" fill="var(--fill-0, #6D7B61)"/>
<path id="Vector_7" d="M1750.4 1454.33C1600.5 1520.14 1450.39 1573.42 1291.69 1617.2C1295.78 1536.8 1301.6 1459.3 1298.54 1378.87C1296.78 1332.65 1286.42 1289.59 1274.21 1245.71C1262.67 1204.3 1270.39 1163.68 1298.63 1130.81C1367.43 1050.75 1495.07 1037.99 1588.11 1082.99C1663.28 1119.32 1714.78 1186.57 1735.86 1266.89C1744.98 1301.69 1769.59 1423.84 1750.44 1454.3L1750.4 1454.33ZM1479.01 1460.14C1514.19 1464.17 1551.43 1442.44 1561.08 1408.41C1581.27 1337.32 1530.91 1241.75 1474.35 1258.96C1418.81 1275.84 1416.27 1452.93 1479.01 1460.14Z" fill="var(--fill-0, #6D7B61)"/>
<path id="Vector_8" d="M1360.07 337.967C1323.9 338.27 1304.15 364.24 1305.87 397.269C1306.84 415.602 1313.2 432.573 1326.32 442.997C1371.85 479.179 1425.06 422.967 1465.41 402.421C1488.68 390.573 1514.1 400.451 1524.94 423.815C1562.79 505.39 1533.61 599.966 1450.6 643.269C1377.31 681.48 1286.55 675.632 1235.38 605.087C1214.11 575.753 1203.75 542.663 1200.63 506.451L1190.77 392.754C1186.65 345.119 1175.69 300.452 1162.24 254.634C1142.16 186.241 1133.88 116.059 1192.84 64.6955C1260.37 5.81699 1387.95 -10.0314 1474.83 5.72608C1535.39 16.6957 1558.79 90.0287 1536.58 136.937C1526.46 158.331 1503.19 168.574 1479.22 169.21C1428.76 170.574 1385.25 141.786 1330.51 146.211C1305.93 148.21 1287.15 163.392 1283.94 188.089C1281.91 203.604 1283.4 220.543 1288.82 234.937C1302.66 271.695 1349.65 257.543 1376.28 245.997C1410.52 231.149 1467.75 198.513 1487.4 245.665C1497.1 268.876 1498.25 295.058 1487.86 318.149C1476.35 343.694 1448.84 353.3 1421.85 347.149C1402 342.603 1381.52 337.785 1360.05 337.967H1360.07Z" fill="var(--fill-0, #6D7B61)"/>
<path id="Vector_9" d="M2091.84 1660.51C2118.83 1646.51 2145.71 1658.24 2163.37 1680.06C2210.72 1738.54 2212.18 1843.99 2168.37 1911.24C2128.23 1972.84 2063.63 2017.29 1991.59 2031.12C1934.76 2042 1883.1 2020.21 1850.35 1974.54C1774.67 1868.93 1791.58 1695.9 1816.9 1573.21L1968.47 1505.96C1971.54 1528.11 1967.81 1547.94 1963.05 1569.45C1950.3 1627.29 1927.61 1711.82 1939.02 1765.9C1942.27 1781.21 1957.27 1790.3 1971.54 1783.6C1984.02 1777.78 1997.35 1768.06 2005.8 1756.87L2049.09 1699.75C2060.48 1684.73 2074.06 1669.73 2091.78 1660.51H2091.84Z" fill="var(--fill-0, #6D7B61)"/>
<path id="Vector_10" d="M2154.19 1506.83L2146.7 1405.5L2252.64 1340.26C2261.34 1365.95 2274.7 1438.01 2300.91 1447.98C2307.73 1450.56 2320.88 1447.71 2327.21 1442.71C2373.13 1406.5 2386.61 1325.5 2389.62 1269.62C2390.07 1260.98 2394.52 1252.22 2401.8 1246.95L2541.97 1145.2C2563.46 1203.71 2551.45 1298.32 2537.61 1356.65C2512.55 1462.37 2469.47 1560.83 2408 1649.89C2380.95 1689.11 2346.57 1720.22 2300.03 1731.32C2266.01 1739.44 2233.62 1726.81 2213.65 1698.92C2177.24 1648.13 2158.88 1570.53 2154.19 1506.83Z" fill="var(--fill-0, #6D7B61)"/>
<path id="Vector_11" d="M1826.69 2025.71C1837.38 2081.46 1805 2128.58 1751.98 2141.86C1688.57 2157.74 1625.04 2131.71 1583.71 2080.25C1552.82 2040.23 1535.36 1994.1 1523.4 1943.98C1505.68 1867.14 1500.65 1789.34 1504.25 1710.93L1631.62 1662.22C1638.58 1699.25 1650.91 1732.26 1668.7 1764.65L1740.31 1871.89C1769.79 1915.5 1816.54 1972.56 1826.73 2025.71H1826.69Z" fill="var(--fill-0, #6D7B61)"/>
<path id="Vector_12" d="M1389.51 2101.83C1307.1 2121.56 1227.22 2069.35 1208.25 1986.84C1193.98 1924.78 1205.92 1860.38 1230.04 1802.08C1235.54 1794.07 1241.42 1789.44 1250.39 1786.92L1424.08 1738.05C1429.05 1800.99 1439.98 1858.78 1454.5 1917.74C1463.34 1953.65 1466.83 1988.53 1460.64 2024.32C1452.86 2061.72 1429.56 2092.26 1389.51 2101.83Z" fill="var(--fill-0, #6D7B61)"/>
<path id="Vector_13" d="M1912.2 1379.1C1881.56 1396.86 1852.73 1412.08 1820.77 1422.38C1810.1 1383.38 1817.52 1349.8 1833.03 1316.23C1868.81 1238.87 1955.79 1198.99 2037.96 1223.93C2062.08 1231.26 2080.22 1249.81 2084.68 1274.14C2027.35 1311.47 1971.57 1344.62 1912.17 1379.07L1912.2 1379.1Z" fill="var(--fill-0, #6D7B61)"/>
<path id="Vector_14" d="M1016.4 1993.89C954.442 1971.5 938.416 1904.74 947.565 1846.62L1127.74 1813.05C1136.52 1811.41 1144.98 1810.78 1153.52 1810.62C1156.12 1886.42 1118.74 2016.87 1016.4 1993.89Z" fill="var(--fill-0, #6D7B61)"/>
<path id="Vector_15" d="M2150.95 1237.77C2128.32 1214.07 2155.74 1181.41 2175.91 1166.62C2212.91 1139.5 2278.31 1111.11 2329.91 1116.2C2282.34 1155.56 2231.45 1192.41 2176.49 1226.74C2169.43 1231.17 2159.64 1234.87 2150.95 1237.77Z" fill="var(--fill-0, #6D7B61)"/>
<path id="Vector_16" d="M895.054 1878.53C871.15 1919.92 818.648 1927.29 782.868 1899.44C768.114 1887.95 758.237 1875.46 747.633 1857.86L894.449 1854.99C895.599 1860.23 897.903 1873.53 895.024 1878.53H895.054Z" fill="var(--fill-0, #6D7B61)"/>
</g>
</svg>
