<svg width="1531" height="960" viewBox="0 0 1531 960" fill="none" xmlns="http://www.w3.org/2000/svg">
<path d="M297.45 545.329L242.551 598.399C214.925 625.108 181.442 670.345 166.947 706.801C151.714 745.12 152.881 785.2 180.525 817.794C233.449 880.189 354.598 893.593 431.904 892.595C576.354 890.739 725.452 851.357 858.978 797.157C992.502 742.957 1131.42 663.244 1235.54 569.194C1264.63 542.908 1290.62 515.33 1313.3 483.559C1336.23 451.442 1356.32 411.637 1350.1 371.236C1343.2 326.435 1303.05 298.704 1263.53 283.457C1244.05 275.931 1224.78 270.012 1204.07 266.673L1125.29 253.937C1205.15 248.595 1322.11 254.184 1385.78 309.51C1401.75 323.391 1413.69 340.29 1418.82 360.859C1430.07 405.92 1405.3 450.555 1378.29 485.206C1353.86 516.549 1325.99 543.403 1295.41 569.049C1210.04 640.642 1112.73 700.091 1015 753.31C986.796 768.669 959.747 782.949 930.419 796.38C787.412 861.854 628.753 913.507 471.498 928.185C377.427 936.968 238.179 933.41 156.961 880.523C92.3094 838.427 87.2067 777.536 124.828 713.331C162.491 649.057 235.86 586.552 297.463 545.369L297.45 545.329Z" fill="white"/>
<path d="M1449.5 209.54C1448.1 255.706 1452.1 261.237 1496.37 274.387C1450.21 272.99 1444.68 276.987 1431.53 321.263C1432.92 275.097 1428.93 269.567 1384.65 256.417C1430.82 257.814 1436.35 253.816 1449.5 209.54Z" fill="white"/>
<path d="M1489.11 323.287C1488.59 342.735 1490.32 345.072 1509.44 350.685C1489.53 350.02 1487.15 351.695 1481.55 370.328C1482.07 350.88 1480.34 348.543 1461.22 342.93C1481.14 343.595 1483.52 341.919 1489.11 323.287Z" fill="white"/>
<path d="M49.508 810.788C48.7069 837.266 50.9998 840.437 76.393 847.979C49.9156 847.178 46.7438 849.471 39.2019 874.864C40.003 848.387 37.7105 845.215 12.3169 837.673C38.7947 838.474 41.9662 836.181 49.508 810.788Z" fill="white"/>
</svg>
